<svg xmlns="http://www.w3.org/2000/svg" version="1.1" xmlns:xlink="http://www.w3.org/1999/xlink" xmlns:svgjs="http://svgjs.com/svgjs" width="512" height="512" x="0" y="0" viewBox="0 0 512 512" style="enable-background:new 0 0 512 512" xml:space="preserve" class=""><g><linearGradient id="SVGID_1_" gradientUnits="userSpaceOnUse" x1="256" x2="256" y1="512" y2="0"><stop stop-opacity="1" stop-color="#eb0022" offset="0"></stop><stop stop-opacity="1" stop-color="#ffc5ce" offset="1"></stop></linearGradient><g><g><g><path d="m467 120h-31.041c9.438-12.544 15.041-28.129 15.041-45 0-41.355-33.645-75-75-75-23.836 0-45.717 10.948-60.031 30.037l-59.969 79.962-59.968-79.962c-14.316-19.089-36.197-30.037-60.032-30.037-41.355 0-75 33.645-75 75 0 16.871 5.603 32.456 15.041 45h-40.991c-19.327 0-35.05 15.723-35.05 35.05v39.95c0 24.813 20.187 45 45 45h16v227c0 24.813 20.187 45 45 45h300c24.813 0 45-20.187 45-45v-227h16c24.813 0 45-20.187 45-45v-30c0-24.813-20.187-45-45-45zm-127.031-71.964c8.595-11.462 21.728-18.036 36.031-18.036 24.813 0 45 20.187 45 45s-20.187 45-45 45h-56.459l63.167-31.584c7.41-3.705 10.413-12.715 6.708-20.125-3.705-7.409-12.713-10.414-20.124-6.708l-63.172 31.586zm-203.969-18.036c14.302 0 27.436 6.574 36.031 18.036l33.848 45.133-63.171-31.586c-7.41-3.705-16.42-.701-20.125 6.708-3.705 7.41-.701 16.42 6.708 20.125l63.168 31.584h-56.459c-24.813 0-45-20.187-45-45s20.187-45 45-45zm285 437c0 8.271-6.729 15-15 15h-300c-8.271 0-15-6.729-15-15v-227h330zm61-272c0 8.271-6.729 15-15 15h-422c-8.271 0-15-6.729-15-15v-39.95c0-2.784 2.265-5.05 5.05-5.05h431.95c8.271 0 15 6.729 15 15zm-330.23 215.743c2.042 6.126 7.773 10.257 14.23 10.257s12.188-4.131 14.23-10.257l30-90c2.62-7.859-1.628-16.354-9.487-18.974-7.86-2.62-16.354 1.628-18.974 9.487l-15.769 47.31-15.77-47.309c-2.62-7.859-11.114-12.106-18.974-9.487-7.859 2.62-12.107 11.115-9.487 18.974zm164.23 10.257c8.284 0 15-6.716 15-15v-30h22.5c20.678 0 37.5-16.823 37.5-37.5s-16.822-37.5-37.5-37.5h-37.5c-8.284 0-15 6.716-15 15v90c0 8.284 6.716 15 15 15zm15-90h22.5c4.136 0 7.5 3.365 7.5 7.5s-3.364 7.5-7.5 7.5h-22.5zm-75 90c8.284 0 15-6.716 15-15v-90c0-8.284-6.716-15-15-15s-15 6.716-15 15v90c0 8.284 6.716 15 15 15z" fill="url(#SVGID_1_)" data-original="url(#SVGID_1_)"></path></g></g></g></g></svg>