<svg id="Capa_1" enable-background="new 0 0 512.002 512.002" height="512" viewBox="0 0 512.002 512.002" width="512" xmlns="http://www.w3.org/2000/svg"><g><path d="m315.202 366.909c-4.355 0-7.885-3.53-7.885-7.885v-68.962c0-4.355 3.53-7.885 7.885-7.885s7.885 3.53 7.885 7.885v68.962c0 4.355-3.53 7.885-7.885 7.885z" fill="#766d78"/><path d="m263.85 294.479c11.307-6.472 20.302-14.939 27.482-24.971.592-.827.127-1.981-.866-2.202-5.031-1.122-10.061-2.585-15.092-4.392-2.698-.969-2.977-4.647-.49-6.073 9.987-5.724 17.661-13.442 23.606-22.651.556-.861.069-1.997-.939-2.183-5.49-1.014-10.981-2.489-16.471-4.457-2.317-.83-2.632-4.018-.496-5.242 17.33-9.933 26.613-26.807 31.745-47.262.75-2.988 4.994-2.988 5.744 0 5.132 20.454 14.415 37.329 31.746 47.262 2.135 1.224 1.82 4.412-.496 5.242-5.49 1.968-10.981 3.443-16.471 4.457-1.008.186-1.495 1.322-.939 2.183 5.945 9.21 13.62 16.927 23.606 22.651 2.487 1.426 2.208 5.104-.49 6.073-5.031 1.807-10.061 3.27-15.092 4.392-.992.221-1.458 1.375-.866 2.202 7.18 10.032 16.175 18.499 27.482 24.971 3.138 1.796 2.753 6.475-.65 7.697-33.801 12.145-67.602 12.145-101.404 0-3.402-1.222-3.787-5.901-.649-7.697z" fill="#acd980"/><path d="m79.949 262.9 34.58 159.14c1.603 7.377-4.017 14.35-11.567 14.35h-67.64c-7.55 0-13.17-6.972-11.567-14.35l34.582-159.14c2.523-11.614 19.088-11.614 21.612 0z" fill="#95c9a6"/><path d="m114.529 422.04-34.58-159.14c-2.425-11.161-17.812-11.589-21.248-1.298.139.417.266.846.364 1.298l34.58 159.14c1.603 7.377-4.017 14.35-11.567 14.35h20.884c7.55 0 13.171-6.973 11.567-14.35z" fill="#7fbd93"/><path d="m210.875 235.741 31.763 115.146h-82.735l31.763-115.146c2.69-9.752 16.519-9.752 19.209 0z" fill="#95c9a6"/><path d="m210.875 235.741c-2.69-9.752-16.519-9.752-19.209 0l-.837 3.035 30.925 112.111h20.884z" fill="#7fbd93"/><path d="m449.003 433.373-321.618 18.111h-122.264c-4.027 0-6.486-4.458-4.31-7.846 28.44-44.286 77.652-79.348 137.913-97.732 4.571-1.395 15.324-1.167 20.018-2.366 6.29-1.607 6.568-4.562 13.061-5.805 20.355-3.897 41.658-5.966 63.592-5.966 72.768 0 138.58 22.772 185.945 59.511 22.282 17.283 14.741 19.546 27.663 42.093z" fill="#acd980"/><path d="m241.363 331.825c64.189 23.709 121.19 60.715 36.64 81.829l8.122 37.83h188.618c-39.636-69.164-128.938-117.866-233.38-119.659z" fill="#8cc951"/><path d="m171.804 337.738c54.078 18.88 99.722 61.218 122.567 113.746h-57.602c-19.616-44.849-54.807-83.646-98.042-105.57 10.696-3.263 21.738-6.005 33.077-8.176z" fill="#ffeed2"/><path d="m421.078 271.039 30.197 168.981h-82.578l30.197-168.981c2.212-12.381 19.971-12.381 22.184 0z" fill="#95c9a6"/><path d="m421.078 271.039c-2.064-11.55-17.652-12.321-21.533-2.322.28.72.503 1.491.651 2.322l30.197 168.981h20.881z" fill="#7fbd93"/><path d="m124.298 451.484h201.444l44.15-13.88 47.797 13.88h89.206c4.511 0 6.785-5.421 3.653-8.669-130.394-135.182-290.778 1.165-386.25 8.669z" fill="#cce8b0"/><path d="m445.137 451.484h61.758c4.519 0 6.79-5.416 3.653-8.669-39.631-41.083-82.036-57.083-124.544-59.244 42.848 19.559 89.825 46.272 59.133 67.913z" fill="#acd980"/><path d="m325.742 451.484c.521-5.268.278-10.589-.805-15.798-3.315-15.956-14.364-30.443-29.521-39.573 15.855-4.572 31.977-8.286 48.213-10.516 20.566 8.49 38.997 21.02 53.392 36.515 8.306 8.94 15.24 18.853 20.668 29.372z" fill="#ffeed2"/><path d="m438.696 96.576c-1.38-19.458-17.355-35.057-36.839-36.01-19.535-.956-36.097 12.49-39.99 30.653-11.297.391-21.27 5.98-27.618 14.443h-29.014c-3.774 0-6.833 3.059-6.833 6.833s3.059 6.833 6.833 6.833h116.727c8.02 0 15.044-5.708 16.33-13.624.477-2.945.625-6.002.404-9.128z" fill="#ddebfd"/><path d="m438.696 96.576c-1.38-19.458-17.355-35.057-36.839-36.01-5.164-.253-10.116.509-14.685 2.09 14.333 4.988 24.987 18.191 26.103 33.92.222 3.127.074 6.183-.405 9.129-1.286 7.916-8.31 13.624-16.33 13.624h25.421c8.02 0 15.044-5.708 16.33-13.624.478-2.946.626-6.002.405-9.129z" fill="#bed9fd"/><circle cx="104.242" cy="105.543" fill="#f8e883" r="29.059"/></g></svg>