<svg height="512" viewBox="0 0 58 59" width="512" xmlns="http://www.w3.org/2000/svg"><g id="Page-1" fill="none" fill-rule="evenodd"><g id="017---Box-of-Points" fill-rule="nonzero" transform="translate(0 -1)"><path id="Shape" d="m5 30v28c0 1.1045695.8954305 2 2 2h44c1.1045695 0 2-.8954305 2-2v-28z" fill="#a56a43"/><path id="Shape" d="m53 30v28c-.0032948 1.1032019-.8967981 1.9967052-2 2h-22v-30z" fill="#cb8252"/><path id="Shape" d="m30.569 3.023 2.36 4.977c.2472802.53217055.7426225.90686212 1.322 1l5.236.791c.6799246.13454774 1.230666.6322918 1.4330885 1.2951837s.0236872 1.383391-.4650885 1.8748163l-3.755 3.806c-.4246891.4381777-.6155326 1.0522927-.514 1.654l.891 5.4c.1443252.6696413-.1088808 1.3626379-.6509203 1.7814963-.5420396.4188584-1.2764968.4890738-1.8880797.1805037l-4.731-2.583c-.5031633-.2779638-1.1138367-.2779638-1.617 0l-4.731 2.585c-.6116148.3076849-1.3455274.2370863-1.8872742-.181546-.5417469-.4186323-.7951863-1.1110052-.6517258-1.780454l.891-5.4c.1017927-.6015446-.088672-1.2156355-.513-1.654l-3.757-3.806c-.4880764-.4916964-.6663559-1.211886-.4640212-1.8744904.2023348-.6626044.7525252-1.16034632 1.4320212-1.2955096l5.236-.793c.5793775-.09313788 1.0747198-.46782945 1.322-1l2.36-4.972c.2741836-.62215765.8894788-1.02409184 1.5693726-1.02517378.6798938-.00108195 1.2964651.39889192 1.5726274 1.02017378z" fill="#f3d55b"/><path id="Shape" d="m36.7 16.766c-.4253538.4387701-.6181765 1.0528363-.52 1.656l.9 5.4c.1440646.6707313-.109467 1.3646296-.652006 1.7844946-.5425389.419865-1.2778494.4912208-1.890994.1835054l-4.731-2.59c-.5042309-.2723922-1.1117691-.2723922-1.616 0l-4.727 2.592c-.6132541.3074129-1.3484545.2359655-1.8910434-.1837731-.542589-.4197386-.7964456-1.1134109-.6529566-1.7842269l.2-1.192c11.881-7.186 10.031-16.92 8.951-20.256.2126165.17628912.3833998.39762426.5.648l2.356 4.976c.2517861.53102847.748075.90473998 1.328 1l5.231.792c.6795195.13440265 1.2299839.6317623 1.4323989 1.2942114.202415.6624492.0239486 1.3825377-.4643989 1.8737886z" fill="#f0c419"/><path id="Shape" d="m48.785 14.512 1.18 2.488c.1237108.2660282.3713469.4533475.661.5l2.618.395c.3395343.0678882.6143551.3167581.7154788.6479172.1011236.3311591.0122109.6910997-.2314788.9370828l-1.878 1.9c-.2124626.2186098-.3079288.5254391-.257.826l.445 2.7c.0716413.3346475-.0549472.6807312-.3256033.8901751-.2706561.2094438-.6374313.2451437-.9433967.0918249l-2.369-1.288c-.2514024-.1389877-.5565976-.1389877-.808 0l-2.362 1.293c-.3060441.1538981-.6732518.1184879-.944249-.0910548-.2709971-.2095427-.397678-.5560212-.325751-.8909452l.446-2.7c.0509288-.3005609-.0445374-.6073902-.257-.826l-1.878-1.9c-.2443879-.2457127-.3337555-.6059622-.2325442-.9374081.1012112-.331446.3765819-.580318.7165442-.6475919l2.618-.395c.2896531-.0466525.5372892-.2339718.661-.5l1.18-2.486c.1355431-.3122283.4428385-.5148095.783215-.5163261.3403764-.0015166.6494649.1983181.787785.5093261z" fill="#f3d55b"/><path id="Shape" d="m51.851 21.383c-.2127471.2193433-.3091697.5264123-.26.828l.448 2.7c.0717445.335408-.0551838.6822442-.3264783.8921134-.2712944.2098693-.6388947.245593-.9455217.0918866l-2.367-1.295c-.2521614-.1360142-.5558386-.1360142-.808 0l-2.363 1.3c-.306627.1537064-.6742273.1179827-.9455217-.0918866-.2712945-.2098692-.3982228-.5567054-.3264783-.8921134l.1-.6c5.939-3.592 5.015-8.459 4.475-10.127.1055828.0883569.1902788.1990083.248.324l1.183 2.487c.1265064.2650134.3743493.4516421.664.5l2.616.4c.3395572.0671288.6146509.3156163.7158547.6466196s.012105.6908422-.2318547.9363804z" fill="#f0c419"/><path id="Shape" d="m10.785 14.512 1.18 2.488c.1237108.2660282.3713469.4533475.661.5l2.618.395c.3395343.0678882.6143551.3167581.7154788.6479172.1011236.3311591.0122109.6910997-.2314788.9370828l-1.879 1.9c-.2118162.2189661-.3068579.525624-.256.826l.445 2.7c.0716413.3346475-.0549472.6807312-.3256033.8901751-.2706561.2094438-.6374313.2451437-.9433967.0918249l-2.369-1.288c-.2514024-.1389877-.5565976-.1389877-.808 0l-2.362 1.293c-.3060441.1538981-.67325178.1184879-.94424895-.0910548s-.39767805-.5560212-.32575105-.8909452l.446-2.7c.05043282-.3005275-.04496484-.6071363-.257-.826l-1.878-1.9c-.24438785-.2457127-.3337555-.6059622-.23254425-.9374081.10121125-.331446.37658197-.580318.71654425-.6475919l2.618-.4c.2896531-.0466525.53728923-.2339718.661-.5l1.18-2.486c.13654002-.3117865.44447407-.5133812.78484715-.5138145.34037305-.0004333.64881945.2003766.78615285.5118145z" fill="#f3d55b"/><path id="Shape" d="m13.851 21.383c-.2127471.2193433-.3091697.5264123-.26.828l.448 2.7c.0717445.335408-.0551838.6822442-.3264783.8921134-.2712944.2098693-.6388947.245593-.9455217.0918866l-2.367-1.295c-.2521614-.1360142-.55583858-.1360142-.808 0l-2.361 1.3c-.30654777.1531287-.67371654.1171162-.9446706-.0926546-.27095406-.2097709-.39778977-.5562136-.3263294-.8913454l.1-.6c5.939-3.592 5.015-8.459 4.475-10.127.1055828.0883569.1902788.1990083.248.324l1.18 2.487c.1265064.2650134.3743493.4516421.664.5l2.615.4c.3395572.0671288.6146509.3156163.7158547.6466196s.012105.6908422-.2318547.9363804z" fill="#f0c419"/><path id="Shape" d="m23.382 40h-21.764c-.34644011-.000185-.66810366-.1796678-.85019452-.4743943-.18209087-.2947265-.19866428-.6627032-.04380548-.9726057l4-8c.16926354-.3387294.51533429-.5527978.894-.553h23.382l-4.724 9.447c-.1692635.3387294-.5153343.5527978-.894.553z" fill="#cb8252"/><path id="Shape" d="m34.618 40h21.764c.3464401-.000185.6681037-.1796678.8501945-.4743943.1820909-.2947265.1986643-.6627032.0438055-.9726057l-4-8c-.1692635-.3387294-.5153343-.5527978-.894-.553h-23.382l4.724 9.447c.1692635.3387294.5153343.5527978.894.553z" fill="#cf976a"/><g fill="#f29c1f"><path id="Shape" d="m22 5c-.3808256.00207881-.7297741-.21233064-.9-.553l-1-2c-.2468713-.49705627-.0440563-1.10012872.453-1.347s1.1001287-.04405627 1.347.453l1 2c.1553431.31085882.1381628.68007643-.0453763.97516644-.183539.29509001-.5071168.47373568-.8546237.47183356z"/><path id="Shape" d="m18 7c-.2651948-.00005664-.5195073-.10545063-.707-.293l-1-1c-.3789722-.39237889-.3735524-1.01608478.0121814-1.40181858.3857338-.38573379 1.0094397-.39115363 1.4018186-.01218142l1 1c.2859079.28599425.3714219.71603662.216678 1.08965456s-.5192821.61725909-.923678.61734544z"/><path id="Shape" d="m36 5c-.3475069.00190212-.6710847-.17674355-.8546237-.47183356-.1835391-.29509001-.2007194-.66430762-.0453763-.97516644l1-2c.2468713-.49429485.8477051-.69487128 1.342-.448s.6948713.84770515.448 1.342l-1 2c-.1686168.3374448-.5127763.55128772-.89.553z"/><path id="Shape" d="m40 7c-.4043959-.00008635-.7689341-.2437275-.923678-.61734544s-.0692299-.80366031.216678-1.08965456l1-1c.2510745-.25995658.6228779-.3642126.9725073-.27269716.3496295.09151544.6226744.3645604.7141899.71418984.0915154.34962943-.0127406.72143285-.2726972.97250732l-1 1c-.1874927.18754937-.4418052.29294336-.707.293z"/></g></g></g></svg>