<svg id="Capa_1" enable-background="new 0 0 511.996 511.996" height="512" viewBox="0 0 511.996 511.996" width="512" xmlns="http://www.w3.org/2000/svg"><g><g><path d="m255.122 86.954-10.128 9.874c-3.118 3.039-4.543 7.416-3.805 11.708l2.39 13.939c1.853 10.805-9.486 19.045-19.191 13.942l-12.518-6.58c-3.853-2.028-8.456-2.028-12.309 0l-12.518 6.58c-9.705 5.102-21.044-3.138-19.191-13.942l2.39-13.939c.738-4.291-.687-8.669-3.805-11.708l-10.128-9.874c-7.849-7.652-3.516-20.98 7.33-22.557l13.996-2.034c4.307-.626 8.033-3.331 9.959-7.235l6.259-12.684c2.426-4.914 7.143-7.372 11.86-7.372s9.435 2.457 11.86 7.372l6.259 12.684c1.926 3.904 5.652 6.609 9.959 7.235l13.996 2.034c10.85 1.576 15.183 14.905 7.335 22.557z" fill="#f9da41"/><path d="m173.625 88.67c4.142 10.528 10.284 17.57 5.97 27.51-4.314 9.943-2.133 23.002 19.966 13.656l-12.518 6.58c-9.705 5.102-21.044-3.138-19.191-13.942l2.39-13.939c.738-4.291-.687-8.669-3.805-11.708l-10.128-9.874c-7.849-7.652-3.516-20.98 7.33-22.557l13.996-2.034c4.307-.626 8.033-3.331 9.959-7.235l6.259-12.684c2.426-4.914 7.143-7.372 11.86-7.372-9.308 0-5.439 26.842-18.765 33.883-13.323 7.045-17.465 9.188-13.323 19.716z" fill="#edc932"/></g><g><path d="m381.791 86.954-10.128 9.874c-3.118 3.039-4.543 7.416-3.805 11.708l2.39 13.939c1.853 10.805-9.486 19.045-19.191 13.942l-12.518-6.58c-3.853-2.028-8.456-2.028-12.309 0l-12.518 6.58c-9.705 5.102-21.044-3.138-19.191-13.942l2.39-13.939c.738-4.291-.687-8.669-3.805-11.708l-10.128-9.874c-7.849-7.652-3.516-20.98 7.33-22.557l13.996-2.034c4.307-.626 8.033-3.331 9.959-7.235l6.259-12.684c2.426-4.914 7.143-7.372 11.86-7.372s9.435 2.457 11.86 7.372l6.259 12.684c1.926 3.904 5.652 6.609 9.959 7.235l13.996 2.034c10.851 1.576 15.184 14.905 7.335 22.557z" fill="#f9da41"/><path d="m300.295 88.67c4.142 10.528 10.284 17.57 5.97 27.51-4.314 9.943-2.133 23.002 19.966 13.656l-12.518 6.58c-9.705 5.102-21.044-3.138-19.191-13.942l2.39-13.939c.738-4.291-.687-8.669-3.805-11.708l-10.128-9.874c-7.849-7.652-3.516-20.98 7.33-22.557l13.996-2.034c4.307-.626 8.033-3.331 9.959-7.235l6.259-12.684c2.426-4.914 7.143-7.372 11.86-7.372-9.308 0-5.439 26.842-18.765 33.883-13.323 7.045-17.465 9.188-13.323 19.716z" fill="#edc932"/></g><g><path d="m507.989 86.954-10.128 9.874c-3.118 3.039-4.543 7.416-3.805 11.708l2.39 13.939c1.853 10.805-9.486 19.045-19.191 13.942l-12.518-6.58c-3.853-2.028-8.456-2.028-12.309 0l-12.518 6.58c-9.705 5.102-21.044-3.138-19.191-13.942l2.39-13.939c.738-4.291-.687-8.669-3.805-11.708l-10.128-9.874c-7.849-7.652-3.516-20.98 7.33-22.557l13.996-2.034c4.307-.626 8.033-3.331 9.959-7.235l6.259-12.684c2.426-4.914 7.143-7.372 11.86-7.372s9.435 2.457 11.86 7.372l6.259 12.684c1.926 3.904 5.652 6.609 9.959 7.235l13.996 2.034c10.851 1.576 15.184 14.905 7.335 22.557z" fill="#f9da41"/><path d="m426.493 88.67c4.142 10.528 10.284 17.57 5.97 27.51-4.314 9.943-2.133 23.002 19.966 13.656l-12.518 6.58c-9.705 5.102-21.044-3.138-19.191-13.942l2.39-13.939c.738-4.291-.687-8.669-3.805-11.708l-10.128-9.874c-7.849-7.652-3.516-20.98 7.33-22.557l13.996-2.034c4.307-.626 8.033-3.331 9.959-7.235l6.259-12.684c2.426-4.914 7.143-7.372 11.86-7.372-9.308 0-5.439 26.842-18.765 33.883-13.323 7.045-17.465 9.188-13.323 19.716z" fill="#edc932"/></g><path d="m67.634 154.152c-10.064 0-20.129-.287-30.123-.861-19.759-1.134-35.515-16.89-36.649-36.65-1.149-19.988-1.149-40.258 0-60.247 1.134-19.759 16.89-35.515 36.649-36.65 19.989-1.146 40.26-1.146 60.247 0 19.759 1.134 35.515 16.89 36.649 36.651 1.148 19.988 1.148 40.258 0 60.246-1.134 19.76-16.89 35.516-36.649 36.65-9.995.575-20.059.861-30.124.861zm0-120.044c-9.773 0-19.546.278-29.251.835-12.036.691-21.633 10.288-22.324 22.324-1.114 19.41-1.114 39.092 0 58.501.691 12.037 10.288 21.634 22.324 22.325 19.409 1.114 39.093 1.114 58.502 0 12.036-.691 21.633-10.288 22.324-22.324 1.113-19.409 1.113-39.092 0-58.501-.691-12.036-10.288-21.634-22.324-22.325-9.704-.557-19.477-.835-29.251-.835z" fill="#d0e2e7"/><g><path d="m255.122 256.433-10.128 9.874c-3.118 3.039-4.543 7.416-3.805 11.708l2.39 13.939c1.853 10.805-9.486 19.044-19.191 13.942l-12.518-6.58c-3.853-2.028-8.456-2.028-12.309 0l-12.518 6.58c-9.705 5.102-21.044-3.138-19.191-13.942l2.39-13.939c.738-4.291-.687-8.669-3.805-11.708l-10.128-9.874c-7.849-7.652-3.516-20.98 7.33-22.557l13.996-2.034c4.307-.626 8.033-3.331 9.959-7.235l6.259-12.684c2.426-4.914 7.143-7.372 11.86-7.372s9.435 2.457 11.86 7.372l6.259 12.684c1.926 3.904 5.652 6.609 9.959 7.235l13.996 2.034c10.85 1.576 15.183 14.905 7.335 22.557z" fill="#f1f4f6"/><path d="m173.625 258.149c4.142 10.528 10.284 17.57 5.97 27.51-4.314 9.943-2.133 23.002 19.966 13.656l-12.518 6.58c-9.705 5.102-21.044-3.138-19.191-13.942l2.39-13.939c.738-4.291-.687-8.669-3.805-11.708l-10.128-9.874c-7.849-7.652-3.516-20.98 7.33-22.557l13.996-2.034c4.307-.626 8.033-3.331 9.959-7.235l6.259-12.684c2.426-4.914 7.143-7.372 11.86-7.372-9.308 0-5.439 26.842-18.765 33.883-13.323 7.046-17.465 9.188-13.323 19.716z" fill="#d0e2e7"/></g><g><path d="m381.791 256.433-10.128 9.874c-3.118 3.039-4.543 7.416-3.805 11.708l2.39 13.939c1.853 10.805-9.486 19.044-19.191 13.942l-12.518-6.58c-3.853-2.028-8.456-2.028-12.309 0l-12.518 6.58c-9.705 5.102-21.044-3.138-19.191-13.942l2.39-13.939c.738-4.291-.687-8.669-3.805-11.708l-10.128-9.874c-7.849-7.652-3.516-20.98 7.33-22.557l13.996-2.034c4.307-.626 8.033-3.331 9.959-7.235l6.259-12.684c2.426-4.914 7.143-7.372 11.86-7.372s9.435 2.457 11.86 7.372l6.259 12.684c1.926 3.904 5.652 6.609 9.959 7.235l13.996 2.034c10.851 1.576 15.184 14.905 7.335 22.557z" fill="#f1f4f6"/><path d="m300.295 258.149c4.142 10.528 10.284 17.57 5.97 27.51-4.314 9.943-2.133 23.002 19.966 13.656l-12.518 6.58c-9.705 5.102-21.044-3.138-19.191-13.942l2.39-13.939c.738-4.291-.687-8.669-3.805-11.708l-10.128-9.874c-7.849-7.652-3.516-20.98 7.33-22.557l13.996-2.034c4.307-.626 8.033-3.331 9.959-7.235l6.259-12.684c2.426-4.914 7.143-7.372 11.86-7.372-9.308 0-5.439 26.842-18.765 33.883-13.323 7.046-17.465 9.188-13.323 19.716z" fill="#d0e2e7"/></g><path d="m67.634 323.632c-10.064 0-20.129-.287-30.123-.86-19.759-1.134-35.515-16.89-36.649-36.651-1.149-19.988-1.149-40.258 0-60.246 1.134-19.76 16.89-35.516 36.649-36.65 19.989-1.146 40.26-1.146 60.247 0 19.759 1.134 35.515 16.89 36.649 36.651 1.148 19.988 1.148 40.258 0 60.246-1.134 19.76-16.89 35.516-36.649 36.651-9.995.572-20.059.859-30.124.859zm29.687-8.46h.01zm-29.687-111.585c-9.773 0-19.546.278-29.251.835-12.036.691-21.633 10.288-22.324 22.325-1.114 19.41-1.114 39.092 0 58.501.691 12.037 10.288 21.634 22.324 22.325 19.408 1.114 39.092 1.114 58.502 0 12.036-.691 21.633-10.288 22.324-22.325 1.114-19.409 1.114-39.092 0-58.501-.691-12.036-10.288-21.634-22.324-22.325-9.704-.556-19.477-.835-29.251-.835z" fill="#d0e2e7"/><g><path d="m255.122 425.912-10.128 9.874c-3.118 3.039-4.543 7.416-3.805 11.708l2.39 13.939c1.853 10.805-9.486 19.045-19.191 13.942l-12.518-6.58c-3.853-2.028-8.456-2.028-12.309 0l-12.518 6.58c-9.705 5.102-21.044-3.138-19.191-13.942l2.39-13.939c.738-4.291-.687-8.669-3.805-11.708l-10.128-9.874c-7.849-7.652-3.516-20.98 7.33-22.557l13.996-2.034c4.307-.626 8.033-3.331 9.959-7.235l6.259-12.684c2.426-4.914 7.143-7.372 11.86-7.372s9.435 2.457 11.86 7.372l6.259 12.684c1.926 3.904 5.652 6.609 9.959 7.235l13.996 2.034c10.85 1.577 15.183 14.906 7.335 22.557z" fill="#f1f4f6"/><path d="m173.625 427.629c4.142 10.528 10.284 17.569 5.97 27.51-4.314 9.943-2.133 23.002 19.966 13.656l-12.518 6.58c-9.705 5.102-21.044-3.138-19.191-13.942l2.39-13.939c.738-4.291-.687-8.669-3.805-11.708l-10.128-9.874c-7.849-7.652-3.516-20.98 7.33-22.557l13.996-2.034c4.307-.626 8.033-3.331 9.959-7.235l6.259-12.684c2.426-4.914 7.143-7.372 11.86-7.372-9.308 0-5.439 26.842-18.765 33.883-13.323 7.045-17.465 9.187-13.323 19.716z" fill="#d0e2e7"/></g><path d="m67.634 493.111c-10.064 0-20.129-.287-30.123-.86-19.76-1.135-35.516-16.891-36.65-36.651-1.149-19.988-1.149-40.258 0-60.247 1.134-19.759 16.89-35.515 36.649-36.65 19.987-1.148 40.258-1.148 60.247 0 19.759 1.134 35.515 16.891 36.649 36.65 1.148 19.988 1.148 40.258 0 60.246-1.134 19.76-16.89 35.516-36.649 36.651-9.994.574-20.058.861-30.123.861zm29.687-8.46h.01zm-29.686-111.585c-9.774 0-19.547.279-29.252.836-12.036.691-21.633 10.288-22.324 22.324-1.114 19.41-1.114 39.092 0 58.501.691 12.037 10.288 21.634 22.324 22.325 19.408 1.114 39.092 1.114 58.502 0 12.036-.691 21.633-10.288 22.324-22.325 1.114-19.409 1.114-39.092 0-58.501-.691-12.036-10.288-21.633-22.324-22.324-9.704-.557-19.477-.836-29.25-.836z" fill="#d0e2e7"/><path d="m61.308 122.969c-2.28 0-4.45-1.024-5.9-2.804l-22.273-27.336c-2.655-3.259-2.166-8.053 1.093-10.709s8.053-2.167 10.709 1.093l15.676 19.238 31.773-48.948c2.289-3.527 7.003-4.528 10.529-2.24 3.525 2.289 4.528 7.003 2.24 10.529l-37.461 57.71c-1.325 2.041-3.545 3.325-5.974 3.456-.137.008-.275.011-.412.011z" fill="#78d0b1"/></g></svg>