<svg id="Capa_1" enable-background="new 0 0 512 512" height="512" viewBox="0 0 512 512" width="512" xmlns="http://www.w3.org/2000/svg"><g><path d="m512 256c0 67.543-26.157 128.976-68.895 174.723-46.723 50.013-113.263 76.815-187.105 76.815-141.385 0-251.102-110.153-251.102-251.538 0-73.838 26.362-140.375 76.37-187.098 45.748-42.741 107.185-68.902 174.732-68.902 141.385 0 256 114.615 256 256z" fill="#ffd05b"/><circle cx="256" cy="256" fill="#ffeaa5" r="206.452"/><path d="m429.419 256c0 44.18-16.521 84.501-43.721 115.123-31.767 35.763-78.101 53.773-129.698 53.773-95.777 0-167.699-73.119-167.699-168.895 0-51.565 16.785-97.873 52.509-129.639 30.63-27.237 70.978-43.781 115.19-43.781 95.777 0 173.419 77.642 173.419 173.419z" fill="#ffe077"/><path d="m297.29 264.258-33.583-87.315c-2.715-7.058-12.701-7.058-15.415 0l-33.583 87.315-43.461-32.596-5.41 7.468 34.208 101.385 127.178-10.193 28.497-91.192c2.391-7.651-6.424-13.879-12.837-9.07z" fill="#ffc244"/><path d="m268.387 499.613c-141.385 0-256-114.615-256-256 0-67.541 26.146-128.964 68.882-174.71-50.015 46.723-81.269 113.253-81.269 187.097 0 141.385 114.615 256 256 256 73.844 0 140.382-31.262 187.105-81.277-45.746 42.735-107.177 68.89-174.718 68.89z" fill="#ffc244"/><path d="m270.405 415.014c-95.777 0-173.419-77.642-173.419-173.419 0-44.22 16.58-84.601 43.825-115.233-35.715 31.764-58.23 78.082-58.23 129.638 0 95.777 77.643 173.419 173.419 173.419 51.557 0 97.933-22.582 129.698-58.297-30.632 27.246-71.072 43.892-115.293 43.892z" fill="#ffd05b"/><path d="m194.837 307.143-23.588-75.481-2.135-1.601c-6.413-4.81-15.228 1.418-12.837 9.07l30.037 96.118c2.155 6.895 8.541 11.59 15.765 11.59h107.844c7.224 0 13.61-4.695 15.765-11.59l1.539-4.926h-100.86c-14.449 0-27.221-9.39-31.53-23.18z" fill="#ffaa5a"/></g></svg>